<mxfile host="app.diagrams.net" modified="2020-06-11T04:24:45.417Z" agent="5.0 (Windows NT 10.0; Win64; x64) AppleWebKit/537.36 (KHTML, like Gecko) Chrome/83.0.4103.97 Safari/537.36" etag="J_enMkO_BBG3ELqHjrH8" version="13.2.1" type="github">
  <diagram id="b7CmRXWE2GOlUavSTZUe" name="Page-1">
    <mxGraphModel dx="2836" dy="683" grid="1" gridSize="10" guides="1" tooltips="1" connect="1" arrows="1" fold="1" page="1" pageScale="1" pageWidth="827" pageHeight="1169" math="0" shadow="0">
      <root>
        <mxCell id="0" />
        <mxCell id="1" parent="0" />
        <mxCell id="aLQe0wNo5wLi3Sxk2y81-3" value="No" style="edgeStyle=orthogonalEdgeStyle;rounded=0;orthogonalLoop=1;jettySize=auto;html=1;entryX=0.5;entryY=0;entryDx=0;entryDy=0;strokeWidth=1;endArrow=none;endFill=0;strokeColor=#000000;exitX=0;exitY=0.5;exitDx=0;exitDy=0;" parent="1" source="DqUX-duL37DNaFb8Gwn0-25" target="aLQe0wNo5wLi3Sxk2y81-2" edge="1">
          <mxGeometry x="0.5652" y="34" relative="1" as="geometry">
            <mxPoint x="-1290" y="301.5" as="sourcePoint" />
            <mxPoint as="offset" />
          </mxGeometry>
        </mxCell>
        <mxCell id="aLQe0wNo5wLi3Sxk2y81-1" value="Power On Reset" style="rounded=1;whiteSpace=wrap;html=1;fillColor=#f8cecc;strokeColor=#b85450;" parent="1" vertex="1">
          <mxGeometry x="-1281" y="90" width="120" height="50" as="geometry" />
        </mxCell>
        <mxCell id="aLQe0wNo5wLi3Sxk2y81-4" value="No" style="edgeStyle=orthogonalEdgeStyle;rounded=0;orthogonalLoop=1;jettySize=auto;html=1;endArrow=none;endFill=0;strokeColor=#000000;strokeWidth=1;entryX=0.5;entryY=0;entryDx=0;entryDy=0;exitX=1;exitY=0.5;exitDx=0;exitDy=0;" parent="1" source="aLQe0wNo5wLi3Sxk2y81-2" target="aLQe0wNo5wLi3Sxk2y81-6" edge="1">
          <mxGeometry x="0.8315" y="-193" relative="1" as="geometry">
            <mxPoint x="-1051" y="377.5" as="targetPoint" />
            <mxPoint as="offset" />
            <mxPoint x="-941" y="322.5" as="sourcePoint" />
          </mxGeometry>
        </mxCell>
        <mxCell id="aLQe0wNo5wLi3Sxk2y81-2" value="Does&lt;br&gt;&lt;font color=&quot;#0000ff&quot;&gt;&lt;b&gt;fw-latest.hex&lt;/b&gt;&lt;/font&gt;&lt;br&gt;exist in FS?" style="rhombus;whiteSpace=wrap;html=1;" parent="1" vertex="1">
          <mxGeometry x="-1464" y="267.5" width="160" height="90" as="geometry" />
        </mxCell>
        <mxCell id="aLQe0wNo5wLi3Sxk2y81-5" value="Yes" style="edgeStyle=orthogonalEdgeStyle;rounded=0;orthogonalLoop=1;jettySize=auto;html=1;exitX=0;exitY=0.5;exitDx=0;exitDy=0;endArrow=none;endFill=0;strokeColor=#000000;strokeWidth=1;entryX=0.5;entryY=0;entryDx=0;entryDy=0;" parent="1" source="aLQe0wNo5wLi3Sxk2y81-2" target="CXJbbaDLJKEDGF4cZTQp-16" edge="1">
          <mxGeometry x="-0.7196" y="-10" relative="1" as="geometry">
            <mxPoint x="-1224" y="737.5" as="targetPoint" />
            <mxPoint x="-1344" y="417.5" as="sourcePoint" />
            <mxPoint as="offset" />
          </mxGeometry>
        </mxCell>
        <mxCell id="aLQe0wNo5wLi3Sxk2y81-8" style="edgeStyle=orthogonalEdgeStyle;rounded=0;orthogonalLoop=1;jettySize=auto;html=1;exitX=0.5;exitY=1;exitDx=0;exitDy=0;entryX=0.5;entryY=0;entryDx=0;entryDy=0;endArrow=none;endFill=0;strokeColor=#000000;strokeWidth=1;" parent="1" source="aLQe0wNo5wLi3Sxk2y81-6" target="aLQe0wNo5wLi3Sxk2y81-7" edge="1">
          <mxGeometry relative="1" as="geometry" />
        </mxCell>
        <mxCell id="aLQe0wNo5wLi3Sxk2y81-6" value="Read&lt;br&gt;&lt;b&gt;&lt;font color=&quot;#0000ff&quot;&gt;fw-onboard.md&lt;/font&gt;&lt;/b&gt;&lt;br&gt;-&amp;gt; fw_onboard_ver" style="rounded=0;whiteSpace=wrap;html=1;" parent="1" vertex="1">
          <mxGeometry x="-1137" y="352.5" width="120" height="60" as="geometry" />
        </mxCell>
        <mxCell id="aLQe0wNo5wLi3Sxk2y81-7" value="Read&lt;br&gt;&lt;b&gt;&lt;font color=&quot;#ff0000&quot;&gt;fw-latest.md&lt;/font&gt;&lt;/b&gt;&lt;br&gt;-&amp;gt; fw_latest_ver" style="rounded=0;whiteSpace=wrap;html=1;" parent="1" vertex="1">
          <mxGeometry x="-1137" y="454.5" width="120" height="60" as="geometry" />
        </mxCell>
        <mxCell id="aLQe0wNo5wLi3Sxk2y81-17" value="No" style="edgeStyle=orthogonalEdgeStyle;rounded=0;orthogonalLoop=1;jettySize=auto;html=1;endArrow=none;endFill=0;strokeColor=#000000;strokeWidth=1;entryX=0.5;entryY=0;entryDx=0;entryDy=0;exitX=0;exitY=0.5;exitDx=0;exitDy=0;" parent="1" source="aLQe0wNo5wLi3Sxk2y81-9" target="CXJbbaDLJKEDGF4cZTQp-2" edge="1">
          <mxGeometry x="0.6045" y="49" relative="1" as="geometry">
            <mxPoint as="offset" />
            <mxPoint x="-1519.5" y="686.5" as="targetPoint" />
            <mxPoint x="-1639.5" y="412.5" as="sourcePoint" />
          </mxGeometry>
        </mxCell>
        <mxCell id="2zADhxuHUY_X_oviqkYH-17" style="edgeStyle=orthogonalEdgeStyle;rounded=0;orthogonalLoop=1;jettySize=auto;html=1;endArrow=none;endFill=0;strokeColor=#000000;exitX=0.5;exitY=0;exitDx=0;exitDy=0;entryX=0.5;entryY=1;entryDx=0;entryDy=0;" edge="1" parent="1" source="aLQe0wNo5wLi3Sxk2y81-9" target="aLQe0wNo5wLi3Sxk2y81-7">
          <mxGeometry relative="1" as="geometry">
            <mxPoint x="-878" y="532.5" as="targetPoint" />
            <mxPoint x="-1298" y="582.5" as="sourcePoint" />
            <Array as="points">
              <mxPoint x="-1077" y="532.5" />
              <mxPoint x="-1077" y="532.5" />
            </Array>
          </mxGeometry>
        </mxCell>
        <mxCell id="2zADhxuHUY_X_oviqkYH-21" value="Yes" style="edgeStyle=orthogonalEdgeStyle;rounded=0;orthogonalLoop=1;jettySize=auto;html=1;exitX=1;exitY=0.5;exitDx=0;exitDy=0;endArrow=none;endFill=0;strokeColor=#000000;" edge="1" parent="1" source="aLQe0wNo5wLi3Sxk2y81-9">
          <mxGeometry x="-0.633" y="12" relative="1" as="geometry">
            <mxPoint x="-861" y="602.2142857142858" as="targetPoint" />
            <Array as="points">
              <mxPoint x="-953" y="602.5" />
            </Array>
            <mxPoint x="1" y="1" as="offset" />
          </mxGeometry>
        </mxCell>
        <mxCell id="aLQe0wNo5wLi3Sxk2y81-9" value="fw_onboard_ver&amp;nbsp;=&lt;br&gt;fw_latest_ver ?" style="rhombus;whiteSpace=wrap;html=1;" parent="1" vertex="1">
          <mxGeometry x="-1159.5" y="556.5" width="165" height="90" as="geometry" />
        </mxCell>
        <mxCell id="aLQe0wNo5wLi3Sxk2y81-19" style="edgeStyle=orthogonalEdgeStyle;rounded=0;orthogonalLoop=1;jettySize=auto;html=1;exitX=0.5;exitY=1;exitDx=0;exitDy=0;entryX=0.5;entryY=0;entryDx=0;entryDy=0;endArrow=none;endFill=0;strokeColor=#000000;strokeWidth=1;" parent="1" source="aLQe0wNo5wLi3Sxk2y81-13" target="aLQe0wNo5wLi3Sxk2y81-18" edge="1">
          <mxGeometry relative="1" as="geometry" />
        </mxCell>
        <mxCell id="2zADhxuHUY_X_oviqkYH-13" style="edgeStyle=orthogonalEdgeStyle;rounded=0;orthogonalLoop=1;jettySize=auto;html=1;exitX=0.5;exitY=0;exitDx=0;exitDy=0;endArrow=none;endFill=0;strokeColor=#000000;entryX=0.5;entryY=1;entryDx=0;entryDy=0;" edge="1" parent="1" source="aLQe0wNo5wLi3Sxk2y81-13" target="CXJbbaDLJKEDGF4cZTQp-3">
          <mxGeometry relative="1" as="geometry">
            <mxPoint x="-1135" y="1058.5" as="targetPoint" />
            <Array as="points">
              <mxPoint x="-1250" y="1053.5" />
              <mxPoint x="-1250" y="1053.5" />
            </Array>
          </mxGeometry>
        </mxCell>
        <mxCell id="aLQe0wNo5wLi3Sxk2y81-13" value="Scan TWI bus" style="rounded=0;whiteSpace=wrap;html=1;" parent="1" vertex="1">
          <mxGeometry x="-1310.5" y="1079.5" width="120" height="60" as="geometry" />
        </mxCell>
        <mxCell id="aLQe0wNo5wLi3Sxk2y81-21" value="No" style="edgeStyle=orthogonalEdgeStyle;rounded=0;orthogonalLoop=1;jettySize=auto;html=1;exitX=0;exitY=0.5;exitDx=0;exitDy=0;endArrow=none;endFill=0;strokeColor=#000000;strokeWidth=1;" parent="1" source="aLQe0wNo5wLi3Sxk2y81-18" edge="1">
          <mxGeometry x="-0.8028" y="15" relative="1" as="geometry">
            <mxPoint as="offset" />
            <mxPoint x="-1530" y="1238" as="targetPoint" />
          </mxGeometry>
        </mxCell>
        <mxCell id="aLQe0wNo5wLi3Sxk2y81-23" value="Yes" style="edgeStyle=orthogonalEdgeStyle;rounded=0;orthogonalLoop=1;jettySize=auto;html=1;exitX=1;exitY=0.5;exitDx=0;exitDy=0;entryX=0.5;entryY=0;entryDx=0;entryDy=0;endArrow=none;endFill=0;strokeColor=#000000;strokeWidth=1;" parent="1" source="aLQe0wNo5wLi3Sxk2y81-18" target="aLQe0wNo5wLi3Sxk2y81-22" edge="1">
          <mxGeometry x="-0.0297" y="18" relative="1" as="geometry">
            <mxPoint x="-18" y="-17" as="offset" />
          </mxGeometry>
        </mxCell>
        <mxCell id="aLQe0wNo5wLi3Sxk2y81-18" value="TWI device&lt;br&gt;detected ?" style="rhombus;whiteSpace=wrap;html=1;" parent="1" vertex="1">
          <mxGeometry x="-1333" y="1192.5" width="165" height="90" as="geometry" />
        </mxCell>
        <mxCell id="aLQe0wNo5wLi3Sxk2y81-26" value="Yes" style="edgeStyle=orthogonalEdgeStyle;rounded=0;orthogonalLoop=1;jettySize=auto;html=1;endArrow=none;endFill=0;strokeColor=#000000;strokeWidth=1;entryX=0;entryY=0.5;entryDx=0;entryDy=0;exitX=1;exitY=0.5;exitDx=0;exitDy=0;" parent="1" source="aLQe0wNo5wLi3Sxk2y81-22" target="aLQe0wNo5wLi3Sxk2y81-22" edge="1">
          <mxGeometry x="-0.8521" y="20" relative="1" as="geometry">
            <mxPoint x="-1250" y="1483" as="targetPoint" />
            <mxPoint x="1" as="offset" />
            <mxPoint x="-1000" y="1270" as="sourcePoint" />
            <Array as="points">
              <mxPoint x="-981" y="1335" />
              <mxPoint x="-981" y="1483" />
              <mxPoint x="-1250" y="1483" />
              <mxPoint x="-1250" y="1335" />
            </Array>
          </mxGeometry>
        </mxCell>
        <mxCell id="aLQe0wNo5wLi3Sxk2y81-22" value="Bootloader&lt;br&gt;TWI address ?" style="rhombus;whiteSpace=wrap;html=1;" parent="1" vertex="1">
          <mxGeometry x="-1204" y="1289.5" width="165" height="90" as="geometry" />
        </mxCell>
        <mxCell id="aLQe0wNo5wLi3Sxk2y81-33" style="edgeStyle=orthogonalEdgeStyle;rounded=0;orthogonalLoop=1;jettySize=auto;html=1;exitX=0.5;exitY=1;exitDx=0;exitDy=0;entryX=0.5;entryY=0;entryDx=0;entryDy=0;endArrow=none;endFill=0;strokeColor=#000000;strokeWidth=1;" parent="1" source="aLQe0wNo5wLi3Sxk2y81-30" target="aLQe0wNo5wLi3Sxk2y81-32" edge="1">
          <mxGeometry relative="1" as="geometry" />
        </mxCell>
        <mxCell id="2zADhxuHUY_X_oviqkYH-14" style="edgeStyle=orthogonalEdgeStyle;rounded=0;orthogonalLoop=1;jettySize=auto;html=1;exitX=0.5;exitY=0;exitDx=0;exitDy=0;endArrow=none;endFill=0;strokeColor=#000000;" edge="1" parent="1" source="aLQe0wNo5wLi3Sxk2y81-30">
          <mxGeometry relative="1" as="geometry">
            <mxPoint x="-1121" y="1480" as="targetPoint" />
          </mxGeometry>
        </mxCell>
        <mxCell id="aLQe0wNo5wLi3Sxk2y81-30" value="&lt;div&gt;&lt;span&gt;1.Initialize bootloader&lt;/span&gt;&lt;/div&gt;2.&lt;b&gt;Upload firmware&lt;/b&gt;" style="rounded=0;whiteSpace=wrap;html=1;fillColor=#dae8fc;strokeColor=#6c8ebf;align=center;" parent="1" vertex="1">
          <mxGeometry x="-1181.5" y="1530" width="120" height="60" as="geometry" />
        </mxCell>
        <mxCell id="aLQe0wNo5wLi3Sxk2y81-37" style="edgeStyle=orthogonalEdgeStyle;rounded=0;orthogonalLoop=1;jettySize=auto;html=1;exitX=0.5;exitY=1;exitDx=0;exitDy=0;entryX=0.5;entryY=0;entryDx=0;entryDy=0;endArrow=none;endFill=0;strokeColor=#000000;strokeWidth=1;" parent="1" source="aLQe0wNo5wLi3Sxk2y81-32" target="aLQe0wNo5wLi3Sxk2y81-35" edge="1">
          <mxGeometry relative="1" as="geometry" />
        </mxCell>
        <mxCell id="aLQe0wNo5wLi3Sxk2y81-32" value="Start application&lt;br&gt;Verify app version" style="rounded=0;whiteSpace=wrap;html=1;" parent="1" vertex="1">
          <mxGeometry x="-1181.5" y="1630" width="120" height="60" as="geometry" />
        </mxCell>
        <mxCell id="aLQe0wNo5wLi3Sxk2y81-34" value="Yes" style="edgeStyle=orthogonalEdgeStyle;rounded=0;orthogonalLoop=1;jettySize=auto;html=1;endArrow=none;endFill=0;strokeColor=#000000;strokeWidth=1;entryX=0.5;entryY=0;entryDx=0;entryDy=0;" parent="1" source="aLQe0wNo5wLi3Sxk2y81-35" target="CXJbbaDLJKEDGF4cZTQp-1" edge="1">
          <mxGeometry y="20" relative="1" as="geometry">
            <mxPoint x="-1356.25" y="1862.5" as="targetPoint" />
            <mxPoint as="offset" />
          </mxGeometry>
        </mxCell>
        <mxCell id="aLQe0wNo5wLi3Sxk2y81-35" value="Application firmware&lt;br&gt;updated ?" style="rhombus;whiteSpace=wrap;html=1;" parent="1" vertex="1">
          <mxGeometry x="-1204" y="1730" width="165" height="90" as="geometry" />
        </mxCell>
        <mxCell id="CXJbbaDLJKEDGF4cZTQp-1" value="Rename&lt;br&gt;&lt;b&gt;&lt;font color=&quot;#0000ff&quot;&gt;fw-latest.hex&lt;/font&gt;&lt;/b&gt; -&amp;gt;&lt;br&gt;&lt;b&gt;&lt;font color=&quot;#0000ff&quot;&gt;fw-onboard.hex&lt;/font&gt;&lt;/b&gt;" style="rounded=0;whiteSpace=wrap;html=1;" parent="1" vertex="1">
          <mxGeometry x="-1181.5" y="1860" width="120" height="60" as="geometry" />
        </mxCell>
        <mxCell id="CXJbbaDLJKEDGF4cZTQp-2" value="Download&lt;br&gt;&lt;font color=&quot;#ff0000&quot;&gt;&lt;b&gt;firmware-x.x.x.hex&lt;/b&gt;&lt;/font&gt;&lt;br&gt;-&amp;gt; &lt;font&gt;fw_latest_dat&lt;/font&gt;" style="rounded=0;whiteSpace=wrap;html=1;" parent="1" vertex="1">
          <mxGeometry x="-1308.5" y="646.5" width="120" height="60" as="geometry" />
        </mxCell>
        <mxCell id="CXJbbaDLJKEDGF4cZTQp-3" value="Save&lt;br&gt;&lt;font&gt;fw_latest_dat -&amp;gt;&lt;br&gt;&lt;b&gt;&lt;font color=&quot;#0000ff&quot;&gt;fw-latest.hex&lt;/font&gt;&lt;/b&gt;&lt;br&gt;&lt;/font&gt;" style="rounded=0;whiteSpace=wrap;html=1;" parent="1" vertex="1">
          <mxGeometry x="-1310.5" y="976.5" width="120" height="60" as="geometry" />
        </mxCell>
        <mxCell id="CXJbbaDLJKEDGF4cZTQp-5" style="edgeStyle=orthogonalEdgeStyle;rounded=0;orthogonalLoop=1;jettySize=auto;html=1;endArrow=none;endFill=0;strokeColor=#000000;strokeWidth=1;entryX=0.5;entryY=1;entryDx=0;entryDy=0;exitX=0.5;exitY=1;exitDx=0;exitDy=0;" parent="1" source="CXJbbaDLJKEDGF4cZTQp-2" target="CXJbbaDLJKEDGF4cZTQp-16" edge="1">
          <mxGeometry relative="1" as="geometry">
            <mxPoint x="-1260" y="732.5" as="sourcePoint" />
            <mxPoint x="-1360.5" y="762.5" as="targetPoint" />
            <Array as="points">
              <mxPoint x="-1248" y="743" />
              <mxPoint x="-1529" y="743" />
            </Array>
          </mxGeometry>
        </mxCell>
        <mxCell id="2zADhxuHUY_X_oviqkYH-18" style="edgeStyle=orthogonalEdgeStyle;rounded=0;orthogonalLoop=1;jettySize=auto;html=1;exitX=0.5;exitY=0;exitDx=0;exitDy=0;endArrow=none;endFill=0;strokeColor=#000000;" edge="1" parent="1" source="CXJbbaDLJKEDGF4cZTQp-6">
          <mxGeometry relative="1" as="geometry">
            <mxPoint x="-1393" y="743.5" as="targetPoint" />
          </mxGeometry>
        </mxCell>
        <mxCell id="CXJbbaDLJKEDGF4cZTQp-6" value="Parse IHex&lt;br&gt;&lt;font&gt;fw_latest_dat &lt;br&gt;-&amp;gt; payload&lt;br&gt;&lt;/font&gt;" style="rounded=0;whiteSpace=wrap;html=1;" parent="1" vertex="1">
          <mxGeometry x="-1453" y="785.5" width="120" height="60" as="geometry" />
        </mxCell>
        <mxCell id="CXJbbaDLJKEDGF4cZTQp-7" value="IHex parse errors ?" style="rhombus;whiteSpace=wrap;html=1;" parent="1" vertex="1">
          <mxGeometry x="-1475.5" y="886.5" width="165" height="90" as="geometry" />
        </mxCell>
        <mxCell id="CXJbbaDLJKEDGF4cZTQp-8" value="No" style="edgeStyle=orthogonalEdgeStyle;rounded=0;orthogonalLoop=1;jettySize=auto;html=1;endArrow=none;endFill=0;strokeColor=#000000;strokeWidth=1;entryX=0.5;entryY=0;entryDx=0;entryDy=0;exitX=1;exitY=0.5;exitDx=0;exitDy=0;" parent="1" source="CXJbbaDLJKEDGF4cZTQp-7" target="CXJbbaDLJKEDGF4cZTQp-3" edge="1">
          <mxGeometry x="-0.3048" y="-11" relative="1" as="geometry">
            <mxPoint x="1" as="offset" />
            <mxPoint x="-1343" y="1006.5" as="sourcePoint" />
            <mxPoint x="-1475.5" y="1020.5" as="targetPoint" />
          </mxGeometry>
        </mxCell>
        <mxCell id="CXJbbaDLJKEDGF4cZTQp-9" style="edgeStyle=orthogonalEdgeStyle;rounded=0;orthogonalLoop=1;jettySize=auto;html=1;endArrow=none;endFill=0;strokeColor=#000000;strokeWidth=1;entryX=0.5;entryY=0;entryDx=0;entryDy=0;exitX=0.5;exitY=1;exitDx=0;exitDy=0;" parent="1" source="CXJbbaDLJKEDGF4cZTQp-6" target="CXJbbaDLJKEDGF4cZTQp-7" edge="1">
          <mxGeometry relative="1" as="geometry">
            <mxPoint x="-1323" y="869.5" as="sourcePoint" />
            <mxPoint x="-1383" y="799.5" as="targetPoint" />
          </mxGeometry>
        </mxCell>
        <mxCell id="CXJbbaDLJKEDGF4cZTQp-14" value="Yes" style="edgeStyle=orthogonalEdgeStyle;rounded=0;orthogonalLoop=1;jettySize=auto;html=1;endArrow=none;endFill=0;strokeColor=#000000;strokeWidth=1;exitX=0;exitY=0.5;exitDx=0;exitDy=0;entryX=0.5;entryY=0;entryDx=0;entryDy=0;" parent="1" source="CXJbbaDLJKEDGF4cZTQp-7" target="2zADhxuHUY_X_oviqkYH-24" edge="1">
          <mxGeometry x="-0.9315" y="-21" relative="1" as="geometry">
            <mxPoint x="-1300.5" y="587.5" as="sourcePoint" />
            <mxPoint x="-1256" y="1772.5" as="targetPoint" />
            <mxPoint as="offset" />
            <Array as="points">
              <mxPoint x="-1529" y="932" />
              <mxPoint x="-1529" y="1958" />
            </Array>
          </mxGeometry>
        </mxCell>
        <mxCell id="CXJbbaDLJKEDGF4cZTQp-16" value="Assign&lt;br&gt;&lt;b&gt;&lt;font color=&quot;#0000ff&quot;&gt;fw-latest-hex&lt;/font&gt;&lt;/b&gt;&lt;br&gt;-&amp;gt; &lt;font&gt;fw_latest_dat&lt;/font&gt;" style="rounded=0;whiteSpace=wrap;html=1;" parent="1" vertex="1">
          <mxGeometry x="-1589.5" y="646.5" width="120" height="60" as="geometry" />
        </mxCell>
        <mxCell id="DqUX-duL37DNaFb8Gwn0-25" value="Update retries&lt;br&gt;exceeded ?" style="rhombus;whiteSpace=wrap;html=1;" parent="1" vertex="1">
          <mxGeometry x="-1301" y="179" width="160" height="90" as="geometry" />
        </mxCell>
        <mxCell id="DqUX-duL37DNaFb8Gwn0-26" value="" style="edgeStyle=orthogonalEdgeStyle;rounded=0;orthogonalLoop=1;jettySize=auto;html=1;strokeWidth=1;endArrow=none;endFill=0;strokeColor=#000000;exitX=0.5;exitY=1;exitDx=0;exitDy=0;entryX=0.5;entryY=0;entryDx=0;entryDy=0;" parent="1" source="aLQe0wNo5wLi3Sxk2y81-1" target="DqUX-duL37DNaFb8Gwn0-25" edge="1">
          <mxGeometry x="-0.1489" y="21" relative="1" as="geometry">
            <mxPoint x="-1141.5" y="143" as="sourcePoint" />
            <mxPoint x="-1030" y="193" as="targetPoint" />
            <mxPoint as="offset" />
          </mxGeometry>
        </mxCell>
        <mxCell id="2zADhxuHUY_X_oviqkYH-8" value="Yes&lt;br&gt;" style="edgeStyle=orthogonalEdgeStyle;rounded=0;orthogonalLoop=1;jettySize=auto;html=1;endArrow=none;endFill=0;strokeColor=#000000;entryX=0.5;entryY=1;entryDx=0;entryDy=0;exitX=1;exitY=0.5;exitDx=0;exitDy=0;" edge="1" parent="1" source="DqUX-duL37DNaFb8Gwn0-25" target="CXJbbaDLJKEDGF4cZTQp-1">
          <mxGeometry x="-0.9832" y="14" relative="1" as="geometry">
            <mxPoint x="-1283" y="1912.5" as="targetPoint" />
            <mxPoint x="-1100" y="224" as="sourcePoint" />
            <Array as="points">
              <mxPoint x="-861" y="224" />
              <mxPoint x="-861" y="1960" />
              <mxPoint x="-1121" y="1960" />
            </Array>
            <mxPoint x="1" as="offset" />
          </mxGeometry>
        </mxCell>
        <mxCell id="nFl4lprx6UwOzpVi_gMF-3" value="&lt;b&gt;&lt;font style=&quot;font-size: 14px&quot;&gt;1&lt;/font&gt;&lt;/b&gt;" style="whiteSpace=wrap;html=1;shape=mxgraph.basic.oval_callout;flipH=1;fillColor=#ffe6cc;strokeColor=#d79b00;" parent="1" vertex="1">
          <mxGeometry x="-1304.5" y="164.5" width="49" height="30" as="geometry" />
        </mxCell>
        <mxCell id="nFl4lprx6UwOzpVi_gMF-4" value="&lt;b&gt;&lt;font style=&quot;font-size: 14px&quot;&gt;2&lt;/font&gt;&lt;/b&gt;" style="whiteSpace=wrap;html=1;shape=mxgraph.basic.oval_callout;flipH=1;fillColor=#ffe6cc;strokeColor=#d79b00;" parent="1" vertex="1">
          <mxGeometry x="-1473.5" y="252.5" width="49" height="30" as="geometry" />
        </mxCell>
        <mxCell id="nFl4lprx6UwOzpVi_gMF-5" value="&lt;b&gt;&lt;font style=&quot;font-size: 14px&quot;&gt;3&lt;/font&gt;&lt;/b&gt;" style="whiteSpace=wrap;html=1;shape=mxgraph.basic.oval_callout;flipH=1;fillColor=#ffe6cc;strokeColor=#d79b00;" parent="1" vertex="1">
          <mxGeometry x="-1161" y="538.5" width="49" height="30" as="geometry" />
        </mxCell>
        <mxCell id="nFl4lprx6UwOzpVi_gMF-6" value="&lt;b&gt;&lt;font style=&quot;font-size: 14px&quot;&gt;4&lt;/font&gt;&lt;/b&gt;" style="whiteSpace=wrap;html=1;shape=mxgraph.basic.oval_callout;flipH=1;fillColor=#ffe6cc;strokeColor=#d79b00;" parent="1" vertex="1">
          <mxGeometry x="-1475.5" y="869.5" width="49" height="30" as="geometry" />
        </mxCell>
        <mxCell id="nFl4lprx6UwOzpVi_gMF-7" value="&lt;b&gt;&lt;font style=&quot;font-size: 14px&quot;&gt;5&lt;/font&gt;&lt;/b&gt;" style="whiteSpace=wrap;html=1;shape=mxgraph.basic.oval_callout;flipH=1;fillColor=#ffe6cc;strokeColor=#d79b00;" parent="1" vertex="1">
          <mxGeometry x="-1340" y="1178.5" width="49" height="30" as="geometry" />
        </mxCell>
        <mxCell id="nFl4lprx6UwOzpVi_gMF-8" value="&lt;b&gt;&lt;font style=&quot;font-size: 14px&quot;&gt;6&lt;/font&gt;&lt;/b&gt;" style="whiteSpace=wrap;html=1;shape=mxgraph.basic.oval_callout;flipH=1;fillColor=#ffe6cc;strokeColor=#d79b00;" parent="1" vertex="1">
          <mxGeometry x="-1230" y="1282.5" width="49" height="30" as="geometry" />
        </mxCell>
        <mxCell id="nFl4lprx6UwOzpVi_gMF-9" value="&lt;b&gt;&lt;font style=&quot;font-size: 14px&quot;&gt;7&lt;/font&gt;&lt;/b&gt;" style="whiteSpace=wrap;html=1;shape=mxgraph.basic.oval_callout;flipH=1;fillColor=#ffe6cc;strokeColor=#d79b00;" parent="1" vertex="1">
          <mxGeometry x="-1214" y="1720" width="49" height="30" as="geometry" />
        </mxCell>
        <mxCell id="2zADhxuHUY_X_oviqkYH-27" style="edgeStyle=orthogonalEdgeStyle;rounded=0;orthogonalLoop=1;jettySize=auto;html=1;exitX=0.5;exitY=0;exitDx=0;exitDy=0;endArrow=none;endFill=0;strokeColor=#000000;" edge="1" parent="1" source="2zADhxuHUY_X_oviqkYH-9">
          <mxGeometry relative="1" as="geometry">
            <mxPoint x="-1248.5" y="2100" as="targetPoint" />
          </mxGeometry>
        </mxCell>
        <mxCell id="2zADhxuHUY_X_oviqkYH-9" value="End" style="rounded=1;whiteSpace=wrap;html=1;fillColor=#f5f5f5;strokeColor=#666666;fontColor=#333333;" vertex="1" parent="1">
          <mxGeometry x="-1308.5" y="2140" width="120" height="60" as="geometry" />
        </mxCell>
        <mxCell id="2zADhxuHUY_X_oviqkYH-30" style="edgeStyle=orthogonalEdgeStyle;rounded=0;orthogonalLoop=1;jettySize=auto;html=1;exitX=0.5;exitY=0;exitDx=0;exitDy=0;endArrow=none;endFill=0;strokeColor=#000000;" edge="1" parent="1" source="2zADhxuHUY_X_oviqkYH-23">
          <mxGeometry relative="1" as="geometry">
            <mxPoint x="-990" y="1960" as="targetPoint" />
          </mxGeometry>
        </mxCell>
        <mxCell id="2zADhxuHUY_X_oviqkYH-23" value="Start application" style="rounded=0;whiteSpace=wrap;html=1;fillColor=#d5e8d4;strokeColor=#82b366;" vertex="1" parent="1">
          <mxGeometry x="-1050" y="2000" width="120" height="60" as="geometry" />
        </mxCell>
        <mxCell id="2zADhxuHUY_X_oviqkYH-25" style="edgeStyle=orthogonalEdgeStyle;rounded=0;orthogonalLoop=1;jettySize=auto;html=1;exitX=0.5;exitY=1;exitDx=0;exitDy=0;entryX=0.5;entryY=1;entryDx=0;entryDy=0;endArrow=none;endFill=0;strokeColor=#000000;" edge="1" parent="1" source="2zADhxuHUY_X_oviqkYH-24" target="2zADhxuHUY_X_oviqkYH-23">
          <mxGeometry relative="1" as="geometry">
            <Array as="points">
              <mxPoint x="-1529" y="2100" />
              <mxPoint x="-990" y="2100" />
            </Array>
          </mxGeometry>
        </mxCell>
        <mxCell id="2zADhxuHUY_X_oviqkYH-24" value="Increment retries counter, save file &amp;amp; reset master" style="rounded=0;whiteSpace=wrap;html=1;fillColor=#f8cecc;strokeColor=#b85450;" vertex="1" parent="1">
          <mxGeometry x="-1589.5" y="2000" width="120" height="60" as="geometry" />
        </mxCell>
        <mxCell id="aLQe0wNo5wLi3Sxk2y81-38" value="Reset ATtiny85 to&lt;br&gt;stop application and&lt;br&gt;start bootloader&lt;br&gt;&lt;div&gt;&lt;/div&gt;" style="rounded=0;whiteSpace=wrap;html=1;align=center;fillColor=#fff2cc;strokeColor=#d6b656;" parent="1" vertex="1">
          <mxGeometry x="-1304.5" y="1379.5" width="120" height="60" as="geometry" />
        </mxCell>
      </root>
    </mxGraphModel>
  </diagram>
</mxfile>
